<?xml version="1.0" encoding="utf-8"?>
<svg width="57" height="57" viewBox="0 0 57 57" fill="none" xmlns="http://www.w3.org/2000/svg">
  <g transform="translate(0.5 0.5)">
    <path d="M0 28C0 12.536 12.536 0 28 0C43.464 0 56 12.536 56 28C56 43.464 43.464 56 28 56C12.536 56 0 43.464 0 28Z" fill="none" stroke-width="1" stroke="#000000" />
    <g transform="translate(26 17)">
      <path d="M1.71661e-05 10.9803L0 11L1.71661e-05 11.0197L1.71661e-05 10.9803ZM1.77893 5L2.98675 5Q3.41227 4.44559 3.92893 3.92893Q6.85786 1 11 1Q15.1421 1 18.0711 3.92893Q21 6.85786 21 11Q21 15.1421 18.0711 18.0711Q15.1421 21 11 21Q6.85786 21 3.92893 18.0711Q3.41227 17.5544 2.98675 17L1.77893 17C3.74163 20.0102 7.13845 22 11 22C17.0751 22 22 17.0751 22 11C22 4.92487 17.0751 0 11 0C7.13845 0 3.74163 1.98979 1.77893 5Z" />
      <path d="M3.12074 4.82919Q3.49229 4.36557 3.92893 3.92893Q6.85786 1 11 1Q15.1421 1 18.0711 3.92893Q21 6.85786 21 11Q21 15.1421 18.0711 18.0711Q15.1421 21 11 21Q6.85786 21 3.92893 18.0711Q3.49229 17.6344 3.12073 17.1708Q3.05261 17.0858 2.98675 17L1.77893 17C1.91313 17.2058 2.05403 17.4069 2.20132 17.6028C2.30266 17.7377 2.40703 17.8701 2.51432 18C2.73777 18.2706 2.97391 18.5303 3.22183 18.7782C5.21243 20.7688 7.96244 22 11 22C14.0376 22 16.7876 20.7688 18.7782 18.7782C20.7688 16.7876 22 14.0376 22 11C22 7.96243 20.7688 5.21243 18.7782 3.22182C16.7876 1.23122 14.0376 0 11 0C7.96243 0 5.21243 1.23122 3.22182 3.22182C2.97391 3.46974 2.73777 3.72944 2.51432 4C2.40703 4.12992 2.30266 4.26234 2.20132 4.39717C2.05403 4.59313 1.91313 4.79418 1.77893 5L2.98675 5Q3.05263 4.91418 3.12074 4.82919ZM1.71661e-05 10.9807L0 11L1.71661e-05 11.0193L1.71661e-05 10.9807Z" fill="#000000" fill-rule="evenodd" />
    </g>
    <path d="M1.00006 0L2 1.50003L0 1.50003L1.00006 0Z" fill="#000000" fill-rule="evenodd" transform="matrix(1 0 -0 1 27 32.5)" />
    <path d="M1.00006 0L2 1.50003L0 1.50003L1.00006 0Z" fill="#000000" fill-rule="evenodd" transform="matrix(-1 -0 0 -1 29 23.5)" />
    <g transform="translate(8 17)">
      <path d="M11 0C4.92487 0 0 4.92487 0 11C0 17.0751 4.92487 22 11 22C14.8616 22 18.2584 20.0102 20.2211 17L19.0132 17Q18.5877 17.5544 18.0711 18.0711Q15.1421 21 11 21Q6.85786 21 3.92893 18.0711Q1 15.1421 1 11Q1 6.85786 3.92893 3.92893Q6.85786 1 11 1Q15.1421 1 18.0711 3.92893Q18.5877 4.44559 19.0132 5L20.2211 5C18.2584 1.98979 14.8616 0 11 0Z" />
      <path d="M3.92893 18.0711Q1 15.1421 1 11Q1 6.85786 3.92893 3.92893Q6.85786 1 11 1Q15.1421 1 18.0711 3.92893Q18.5077 4.36552 18.8792 4.82907Q18.9473 4.91409 19.0132 5L20.2211 5C20.0869 4.79418 19.946 4.59313 19.7987 4.39717C19.6973 4.26234 19.593 4.12992 19.4857 4C19.2641 3.73172 19.0301 3.47412 18.7844 3.22809Q18.7813 3.22496 18.7782 3.22182Q18.7745 3.21813 18.7708 3.21444C16.7808 1.22817 14.0338 0 11 0C7.96243 0 5.21243 1.23122 3.22183 3.22182C1.23122 5.21243 0 7.96243 0 11C0 14.0376 1.23122 16.7876 3.22182 18.7782C5.21243 20.7688 7.96243 22 11 22C14.0376 22 16.7876 20.7688 18.7782 18.7782C19.0261 18.5303 19.2622 18.2706 19.4857 18C19.593 17.8701 19.6973 17.7377 19.7987 17.6028C19.946 17.4069 20.0869 17.2058 20.2211 17L19.0132 17Q18.9473 17.0859 18.8792 17.1708Q18.5077 17.6344 18.0711 18.0711Q15.1421 21 11 21Q6.85786 21 3.92893 18.0711Z" fill="#000000" fill-rule="evenodd" />
    </g>
    <path d="M0 6C0 2.68629 2.68629 0 6 0C9.31371 0 12 2.68629 12 6C12 9.31371 9.31371 12 6 12C2.68629 12 0 9.31371 0 6Z" fill="#000000" fill-rule="evenodd" transform="translate(12 22)" />
    <path d="M0 6C0 2.68629 2.68629 0 6 0C9.31371 0 12 2.68629 12 6C12 9.31371 9.31371 12 6 12C2.68629 12 0 9.31371 0 6Z" fill="#000000" fill-rule="evenodd" transform="translate(31 22)" />
  </g>
</svg>