<?xml version="1.0" encoding="utf-8"?>
<svg width="56" height="56" viewBox="0 0 56 56" fill="none" xmlns="http://www.w3.org/2000/svg">
  <g>
    <path d="M29 0L19 0L19 4.63009C20.5981 4.21877 22.2735 4 24 4C25.7265 4 27.4019 4.21877 29 4.63009L29 0ZM41.2045 13.7956C39.4763 10.8882 37.0322 8.45625 34.1151 6.74276L37.929 2.92892L45.0001 10L41.2045 13.7956ZM43.3699 29C43.7812 27.4019 44 25.7265 44 24C44 22.2735 43.7812 20.5981 43.3699 19L48 19L48 29L43.3699 29ZM34.1151 41.2573C37.0322 39.5438 39.4763 37.1118 41.2045 34.2045L45.2426 38.2426L38.1716 45.3137L34.1151 41.2573ZM19 43.3699C20.5981 43.7812 22.2735 44 24 44C25.7265 44 27.4019 43.7812 29 43.3699L29 48L19 48L19 43.3699ZM6.74274 34.1151C8.45622 37.0322 10.8882 39.4763 13.7955 41.2045L9.75735 45.2426L2.68628 38.1716L6.74274 34.1151ZM4.63009 19C4.21877 20.5981 4 22.2735 4 24C4 25.7265 4.21877 27.4019 4.63009 29L0 29L0 19L4.63009 19ZM13.7956 6.79552C10.8882 8.52366 8.45625 10.9678 6.74277 13.8849L2.92899 10.0711L10.0001 3L13.7956 6.79552Z" fill="#000000" fill-rule="evenodd" transform="translate(4 4)" />
    <g transform="matrix(0 1 -1 0 48 8)">
      <path d="M0 20C0 8.9543 8.9543 0 20 0C31.0457 0 40 8.9543 40 20C40 31.0457 31.0457 40 20 40C8.9543 40 0 31.0457 0 20Z" />
      <path d="M20 0C8.9543 0 0 8.9543 0 20C0 31.0457 8.9543 40 20 40C31.0457 40 40 31.0457 40 20C40 8.9543 31.0457 0 20 0ZM6.56497 33.435Q1 27.8701 1 20Q1 12.13 6.56497 6.56497Q12.1299 1 20 1Q27.8701 1 33.435 6.56497Q39 12.1299 39 20Q39 27.8701 33.435 33.435Q27.8701 39 20 39Q12.1299 39 6.56497 33.435Z" fill="#000000" fill-rule="evenodd" />
    </g>
    <g>
      <path d="M0 28C0 12.536 12.536 0 28 0C43.464 0 56 12.536 56 28C56 43.464 43.464 56 28 56C12.536 56 0 43.464 0 28Z" />
      <path d="M28 0C12.536 0 0 12.536 0 28C0 43.464 12.536 56 28 56C43.464 56 56 43.464 56 28C56 12.536 43.464 0 28 0ZM8.90812 47.0919Q1 39.1837 1 28Q1 16.8163 8.90812 8.90812Q16.8162 1 28 1Q39.1837 1 47.0919 8.90812Q55 16.8162 55 28Q55 39.1837 47.0919 47.0919Q39.1837 55 28 55Q16.8162 55 8.90812 47.0919Z" fill="#000000" fill-rule="evenodd" />
    </g>
  </g>
</svg>