<?xml version="1.0" encoding="utf-8"?>
<svg width="76.368" height="76.368" viewBox="0 0 76.368 76.368" fill="none" xmlns="http://www.w3.org/2000/svg">
  <g>
    <path d="M0 28C0 12.536 12.536 0 28 0C43.464 0 56 12.536 56 28C56 43.464 43.464 56 28 56C12.536 56 0 43.464 0 28Z" fill="none" stroke-width="1" stroke="#000000" transform="translate(10.185 10)" />
    <g transform="matrix(0.707 0.707 -0.707 0.707 38.184 0)">
      <path d="M6 0L12 27L0 27L6 0Z" fill="#000000" fill-rule="evenodd" transform="matrix(0 -1 1 0 0 33)" />
      <path d="M6 0L12 27L0 27L6 0Z" fill="#000000" fill-rule="evenodd" transform="translate(21 0)" />
      <path d="M6 0L12 27L0 27L6 0Z" fill="#000000" fill-rule="evenodd" transform="matrix(0 1 -1 0 54 21)" />
      <path d="M6 0L12 27L0 27L6 0Z" fill="#000000" fill-rule="evenodd" transform="matrix(-1 0 0 -1 33 54)" />
    </g>
    <g transform="translate(11.185 11)">
      <path d="M3.80219 0L7.60217 17.12L3.80219 19.5L0 17.1176L3.80219 0Z" fill="#000000" fill-rule="evenodd" transform="matrix(-1 0 0 -1 30.802 54)" />
      <path d="M3.84678 -1.90735e-06L7.62375 17.051L3.64899 19.5L1.90735e-06 17.2136L3.84678 -1.90735e-06Z" fill="#000000" fill-rule="evenodd" transform="matrix(-0 -1 1 -0 0 30.847)" />
      <path d="M3.81207 0L7.66206 17.35L4.01207 19.6501L3.8147e-06 17.1759L3.81207 0Z" fill="#000000" fill-rule="evenodd" transform="matrix(0 1 -1 0 54 23.188)" />
      <path d="M3.84998 -2.58161e-07L6.85095 13.4979L7.69984 17.3623L3.84998 19.8L1.90735e-06 17.36L3.84998 -2.58161e-07Z" fill="#000000" fill-rule="evenodd" transform="matrix(1 -0 0 1 23.15 0)" />
    </g>
  </g>
</svg>