<?xml version="1.0" encoding="utf-8"?>
<svg width="56" height="56" viewBox="0 0 56 56" fill="none" xmlns="http://www.w3.org/2000/svg">
  <g>
    <g>
      <path d="M0 28C0 12.536 12.536 0 28 0C43.464 0 56 12.536 56 28C56 43.464 43.464 56 28 56C12.536 56 0 43.464 0 28Z" />
      <path d="M28 0C12.536 0 0 12.536 0 28C0 43.464 12.536 56 28 56C43.464 56 56 43.464 56 28C56 12.536 43.464 0 28 0ZM8.90812 47.0919Q1 39.1837 1 28Q1 16.8163 8.90812 8.90812Q16.8162 1 28 1Q39.1837 1 47.0919 8.90812Q55 16.8162 55 28Q55 39.1837 47.0919 47.0919Q39.1837 55 28 55Q16.8162 55 8.90812 47.0919Z" fill="#000000" fill-rule="evenodd" />
    </g>
    <path d="M23.7725 0C11.1204 1.03106 1.03106 11.1204 0 23.7725L18.7969 18.7969L23.7725 0ZM0 28.0538C1.03106 40.7059 11.1204 50.7952 23.7725 51.8263L18.7969 33.0294L0 28.0538ZM28.0538 51.8263C40.7059 50.7952 50.7952 40.7059 51.8263 28.0538L33.0294 33.0294L28.0538 51.8263ZM51.8263 23.7725C50.7952 11.1204 40.7059 1.03106 28.0538 0L33.0294 18.7969L51.8263 23.7725Z" fill="#000000" fill-rule="evenodd" transform="translate(2.087 2.087)" />
  </g>
</svg>